<?xml version="1.0" encoding="UTF-8" standalone="no"?>
<!DOCTYPE svg PUBLIC "-//W3C//DTD SVG 1.1//EN"
 "http://www.w3.org/Graphics/SVG/1.1/DTD/svg11.dtd">
<!-- Generated by graphviz version 2.47.0 (20210316.0004)
 -->
<!-- Title: dependencies Pages: 1 -->
<svg width="504pt" height="287pt"
 viewBox="0.00 0.00 504.00 287.00" xmlns="http://www.w3.org/2000/svg" xmlns:xlink="http://www.w3.org/1999/xlink">
<g id="graph0" class="graph" transform="scale(1 1) rotate(0) translate(4 283)">
<title>dependencies</title>
<polygon fill="white" stroke="transparent" points="-4,4 -4,-283 500,-283 500,4 -4,4"/>
<text text-anchor="start" x="227.01" y="-42.4" font-family="Times-12" font-weight="bold" font-size="14.00">Legend</text>
<polygon fill="#ffffb3" stroke="transparent" points="14,-10 14,-30 34,-30 34,-10 14,-10"/>
<text text-anchor="start" x="37.63" y="-15.4" font-family="Times-12" font-size="14.00"> &#160;Declarations</text>
<polygon fill="#8dd3c7" stroke="transparent" points="127,-10 127,-30 147,-30 147,-10 127,-10"/>
<text text-anchor="start" x="150.73" y="-15.4" font-family="Times-12" font-size="14.00"> &#160;Module</text>
<polygon fill="#80b1d3" stroke="transparent" points="213,-10 213,-30 233,-30 233,-10 213,-10"/>
<text text-anchor="start" x="236.78" y="-15.4" font-family="Times-12" font-size="14.00"> &#160;Bootstrap</text>
<polygon fill="#fdb462" stroke="transparent" points="310,-10 310,-30 330,-30 330,-10 310,-10"/>
<text text-anchor="start" x="333.67" y="-15.4" font-family="Times-12" font-size="14.00"> &#160;Providers</text>
<polygon fill="#fb8072" stroke="transparent" points="406,-10 406,-30 426,-30 426,-10 406,-10"/>
<text text-anchor="start" x="429.73" y="-15.4" font-family="Times-12" font-size="14.00"> &#160;Exports</text>
<g id="clust1" class="cluster">
<title>cluster_ApiGatewayModule</title>
<polygon fill="none" stroke="black" stroke-dasharray="1,5" points="120.5,-146 120.5,-271 266.5,-271 266.5,-146 120.5,-146"/>
</g>
<g id="clust3" class="cluster">
<title>cluster_ApiGatewayModule_imports</title>
<polygon fill="none" stroke="black" points="141.5,-154 141.5,-206 249.5,-206 249.5,-154 141.5,-154"/>
</g>
<g id="clust7" class="cluster">
<title>cluster_AuthModule</title>
<polygon fill="none" stroke="black" stroke-dasharray="1,5" points="274.5,-219 274.5,-271 378.5,-271 378.5,-219 274.5,-219"/>
</g>
<g id="clust13" class="cluster">
<title>cluster_UsersModule</title>
<polygon fill="none" stroke="black" stroke-dasharray="1,5" points="117.5,-70 117.5,-138 273.5,-138 273.5,-70 117.5,-70"/>
</g>
<g id="clust18" class="cluster">
<title>cluster_UsersModule_providers</title>
<polygon fill="none" stroke="black" points="125.5,-78 125.5,-130 265.5,-130 265.5,-78 125.5,-78"/>
</g>
<!-- UsersModule -->
<g id="node1" class="node">
<title>UsersModule</title>
<polygon fill="#8dd3c7" stroke="black" points="241.42,-198 238.42,-202 217.42,-202 214.42,-198 149.58,-198 149.58,-162 241.42,-162 241.42,-198"/>
<text text-anchor="middle" x="195.5" y="-175.8" font-family="Times,serif" font-size="14.00">UsersModule</text>
</g>
<!-- ApiGatewayModule -->
<g id="node2" class="node">
<title>ApiGatewayModule</title>
<polygon fill="#8dd3c7" stroke="black" points="258.79,-263 255.79,-267 234.79,-267 231.79,-263 128.21,-263 128.21,-227 258.79,-227 258.79,-263"/>
<text text-anchor="middle" x="193.5" y="-240.8" font-family="Times,serif" font-size="14.00">ApiGatewayModule</text>
</g>
<!-- UsersModule&#45;&gt;ApiGatewayModule -->
<g id="edge1" class="edge">
<title>UsersModule&#45;&gt;ApiGatewayModule</title>
<path fill="none" stroke="black" d="M195.5,-198.11C195.5,-198.11 195.5,-216.99 195.5,-216.99"/>
<polygon fill="black" stroke="black" points="192,-216.99 195.5,-226.99 199,-216.99 192,-216.99"/>
</g>
<!-- AuthModule -->
<g id="node3" class="node">
<title>AuthModule</title>
<polygon fill="#8dd3c7" stroke="black" points="370.05,-263 367.05,-267 346.05,-267 343.05,-263 282.95,-263 282.95,-227 370.05,-227 370.05,-263"/>
<text text-anchor="middle" x="326.5" y="-240.8" font-family="Times,serif" font-size="14.00">AuthModule</text>
</g>
<!-- UsersModule&#45;&gt;AuthModule -->
<g id="edge2" class="edge">
<title>UsersModule&#45;&gt;AuthModule</title>
<path fill="none" stroke="black" d="M241.32,-180C279.09,-180 326.5,-180 326.5,-180 326.5,-180 326.5,-216.89 326.5,-216.89"/>
<polygon fill="black" stroke="black" points="323,-216.89 326.5,-226.89 330,-216.89 323,-216.89"/>
</g>
<!-- UsersService -->
<g id="node4" class="node">
<title>UsersService</title>
<ellipse fill="#fdb462" stroke="black" cx="195.5" cy="-104" rx="61.95" ry="18"/>
<text text-anchor="middle" x="195.5" y="-99.8" font-family="Times,serif" font-size="14.00">UsersService</text>
</g>
<!-- UsersService&#45;&gt;UsersModule -->
<g id="edge3" class="edge">
<title>UsersService&#45;&gt;UsersModule</title>
<path fill="none" stroke="black" d="M180.26,-121.63C180.26,-121.63 180.26,-151.94 180.26,-151.94"/>
<polygon fill="black" stroke="black" points="176.76,-151.94 180.26,-161.94 183.76,-151.94 176.76,-151.94"/>
</g>
<!-- UsersService&#45;&gt;UsersModule -->
<g id="edge4" class="edge">
<title>UsersService&#45;&gt;UsersModule</title>
<path fill="none" stroke="black" d="M210.74,-121.63C210.74,-121.63 210.74,-151.94 210.74,-151.94"/>
<polygon fill="black" stroke="black" points="207.24,-151.94 210.74,-161.94 214.24,-151.94 207.24,-151.94"/>
</g>
</g>
</svg>
